<?xml version="1.0" encoding="UTF-8"?> <svg xmlns="http://www.w3.org/2000/svg" width="227" height="92" viewBox="0 0 227 92" fill="none"><g clip-path="url(#clip0_14_901)"><path d="M113.502 92C153.971 92 189.492 85.3197 209.587 72.523L207.899 69.8655C203.053 72.9588 197.684 75.409 192.649 77.3046C182.718 81.0531 170.805 83.9514 157.229 85.9231C143.787 87.8736 129.08 88.8641 113.502 88.8641C97.9231 88.8641 83.2131 87.8736 69.774 85.9231C56.1977 83.9514 44.2853 81.0562 34.3537 77.3046C20.113 71.9318 3.13885 62.1369 3.13885 46C3.13885 37.735 7.59115 31.137 13.8536 25.95L11.9215 23.4571C4.29383 29.7565 0 37.287 0 46C0 75.9759 50.8159 92 113.502 92ZM17.605 65.1814H21.6855V36.4794H33.8387V32.8802H21.6855V31.9263C21.6855 23.4267 22.2767 20.056 33.0037 15.9327L31.5379 12.4646C22.2615 16.2466 17.7543 20.565 17.6599 28.3851L17.605 32.8802H12.3116V36.4855H17.605V65.1844V65.1814ZM83.4996 65.9951C92.2061 65.9951 97.984 59.5342 97.984 49.1268C97.984 38.7194 92.2061 31.9233 83.4996 31.9233C78.4043 31.9233 74.5249 33.6147 72.4862 37.8813V17.8466H68.4087V54.588C68.4087 60.5704 66.7265 62.402 64.0204 62.402C61.0187 62.402 60.6134 59.7781 60.6134 56.124V44.4335C60.6134 37.159 56.737 31.9233 47.6252 31.9233C40.5552 31.9233 35.4416 35.2878 33.863 41.258L36.5204 45.1497C35.9536 40.5235 40.8051 35.5986 47.4911 35.5986C54.5642 35.5986 56.603 39.8104 56.603 43.3486V44.1623C41.3719 48.4502 33.8265 50.8304 33.8265 57.8337C33.8265 63.2279 37.4255 66.0195 43.0724 66.0195C49.8163 66.0195 54.6282 61.7864 56.6456 57.9251C56.6456 62.1704 59.2085 65.8732 64.0448 65.8732C67.2964 65.8732 70.1701 64.0294 71.3952 60.2382C73.8179 63.8618 78.9071 65.992 83.5057 65.992M43.6849 62.3411C40.5582 62.3411 38.0411 61.186 38.0411 57.6234C38.0411 53.4787 42.5299 51.9153 56.606 48.0358V50.3489C56.606 56.0661 50.8281 62.3411 43.6849 62.3411ZM193.938 66.0256C201.012 66.0256 205.976 61.3018 207.603 57.2882V58.2756C207.603 62.5574 210.382 65.4404 215.121 65.4404C221.841 65.4404 227.003 57.5229 227.003 46.6857C227 15.4756 176.181 0 113.502 0C84.9867 0 58.9282 3.31271 38.9888 9.75831L40.2139 12.6566C48.8625 9.88631 58.7697 7.67683 69.7709 6.0799C83.2131 4.12946 97.9231 3.139 113.498 3.139C129.074 3.139 143.784 4.12946 157.226 6.0799C170.802 8.05168 182.715 10.953 192.646 14.6984C206.887 20.0774 223.861 29.3237 223.861 46.6887C223.861 55.5023 220.32 61.9845 215.313 61.9845C212.485 61.9845 211.473 60.5217 211.473 57.2242V44.4366C211.473 37.162 207.597 31.9263 198.485 31.9263C191.415 31.9263 186.302 35.2908 184.723 41.261L187.38 45.1528C186.814 40.5266 191.665 35.6017 198.351 35.6017C205.424 35.6017 207.463 39.8134 207.463 43.3517V44.1654C192.232 48.4533 184.686 50.8334 184.686 57.8368C184.686 63.1334 188.285 66.0317 193.932 66.0317M83.2284 62.4599C76.4966 62.4599 72.0778 57.6996 72.0778 49.0659C72.0778 40.4321 76.6368 35.5255 83.2284 35.5255C89.8199 35.5255 93.7694 40.7247 93.7694 49.0659C93.7694 57.407 89.5579 62.4599 83.2284 62.4599ZM101.629 65.1814H105.709V47.4324C105.709 43.4218 108.498 36.1442 114.617 36.1442C118.493 36.1442 120.398 39.3563 121.282 41.3951V36.2112C120.532 34.1724 117.814 32.1976 114.958 32.1976C109.79 32.1976 106.8 36.004 105.712 40.3589V32.8802H101.632V65.1814H101.629ZM124.417 65.1814H128.498V32.8772H124.417V65.1783V65.1814ZM145.247 66.1292C149.769 66.1292 153.197 65.1265 155.44 63.1456C157.665 61.1799 158.795 58.6444 158.795 55.6303C158.795 53.6281 158.284 52.0311 157.287 50.87C156.26 49.6815 154.98 48.7245 153.462 48.0205C151.93 47.3135 150.235 46.7527 148.425 46.3748C146.597 45.9909 144.872 45.5825 143.311 45.1497C141.724 44.7139 140.383 44.1654 139.313 43.5193C138.164 42.8305 137.582 41.8248 137.582 40.5357C137.582 36.6165 141.62 34.9952 145.539 34.9952C150.144 34.9952 153.45 36.2264 156.577 40.3163V34.4528C153.325 31.972 149.531 31.1126 145.439 31.1126C137.564 31.1126 133.164 34.9251 133.164 40.6028C133.164 42.5959 133.669 44.1593 134.666 45.2533C135.687 46.3718 136.973 47.2708 138.49 47.9322C140.029 48.6026 141.724 49.1451 143.534 49.5504C145.372 49.9557 147.096 50.4037 148.657 50.8822C150.238 51.3607 151.591 52.022 152.673 52.8296C153.801 53.6768 154.377 54.8959 154.377 56.441C154.377 57.4893 154.136 58.4067 153.664 59.1564C153.194 59.8969 152.557 60.5034 151.753 60.9514C150.97 61.3994 150.058 61.7285 149.044 61.9418C148.065 62.143 146.99 62.2527 145.884 62.2527C144.668 62.2527 143.415 62.1216 142.208 61.8382C141.032 61.567 139.914 61.1952 138.89 60.7319C137.899 60.2961 136.872 59.8329 136.046 59.1655C135.291 58.559 134.736 57.785 134.294 57.1632C134.264 57.1084 134.23 57.0657 134.2 57.0231V62.8134C135.291 63.8892 136.016 64.1452 136.915 64.4683C137.079 64.5262 137.244 64.5841 137.421 64.6542C138.582 65.0961 139.85 65.4587 141.184 65.7239C142.51 65.9951 143.884 66.1231 145.253 66.1231M126.465 29.1195C126.852 28.379 127.337 27.7176 127.904 27.1234C128.538 26.4529 129.278 25.8708 130.104 25.3649C130.204 25.2948 130.308 25.2308 130.412 25.1729C130.305 25.1089 130.204 25.0449 130.104 24.9748C129.525 24.6061 128.998 24.1855 128.507 23.7192C127.73 22.9878 127.06 22.1467 126.468 21.2263C125.822 22.1741 125.146 23.0213 124.43 23.7253C123.933 24.2129 123.418 24.6274 122.882 24.9565C122.763 25.0358 122.641 25.1059 122.519 25.176L122.882 25.3984C123.695 25.9165 124.414 26.4864 125.027 27.1234C125.609 27.7237 126.094 28.3911 126.471 29.1195M175.313 66.1231C178.333 66.1231 180.469 65.0991 181.932 63.3529V58.6352C180.478 60.6283 178.442 62.4538 175.654 62.4538C170.281 62.4538 169.806 57.7606 169.806 55.3804V36.4794H184.223V32.8741H169.806V24.347H165.725V32.8741H159.399V36.4794H165.725V55.3103C165.725 57.6204 165.725 66.1231 175.313 66.1231ZM194.56 62.3472C191.433 62.3472 188.916 61.1129 188.916 57.6204C188.916 53.4757 193.405 51.9123 207.481 48.0327V50.3458C207.481 56.0692 201.703 62.3472 194.56 62.3472Z" fill="#F16137"></path></g><defs><clipPath id="clip0_14_901"><rect width="227" height="92" fill="white"></rect></clipPath></defs></svg> 